<?xml version="1.0" standalone="no"?>
<!DOCTYPE svg PUBLIC "-//W3C//DTD SVG 20010904//EN"
 "http://www.w3.org/TR/2001/REC-SVG-20010904/DTD/svg10.dtd">
<svg version="1.0" xmlns="http://www.w3.org/2000/svg"
 width="500.000000pt" height="500.000000pt" viewBox="0 0 500.000000 500.000000"
 preserveAspectRatio="xMidYMid meet">

<g transform="translate(0.000000,500.000000) scale(0.100000,-0.100000)"
fill="#000000" stroke="none">
<path d="M993 4970 c-200 -22 -409 -139 -549 -308 -73 -87 -148 -243 -169
-347 -14 -71 -15 -253 -13 -1670 l3 -1590 29 -94 c85 -286 245 -518 457 -661
140 -96 261 -134 424 -134 180 0 305 45 580 211 83 49 346 204 585 343 239
139 552 322 695 405 143 84 478 279 745 435 267 156 512 302 545 325 149 106
257 265 300 442 28 115 18 290 -24 413 -56 164 -156 320 -303 476 -106 112 2
45 -1453 886 -1490 861 -1404 814 -1535 847 -92 23 -221 32 -317 21z m674
-892 c18 -10 43 -34 55 -51 l23 -32 3 -1285 c3 -1234 -3 -1553 -27 -1598 -21
-39 -73 -62 -142 -62 -72 0 -115 20 -146 67 -17 26 -18 96 -21 1368 -2 737 -1
1382 3 1434 7 90 9 96 44 133 56 61 136 71 208 26z m-601 -463 c25 -15 49 -39
60 -62 18 -36 19 -81 22 -943 2 -498 0 -930 -3 -960 -18 -141 -194 -198 -292
-94 -18 19 -36 51 -40 72 -4 20 -8 453 -8 962 l0 925 23 40 c54 93 143 116
238 60z m2199 -401 c19 -9 47 -32 62 -52 l28 -37 0 -551 0 -551 -28 -36 c-43
-56 -72 -72 -137 -72 -64 0 -94 16 -137 72 l-28 36 -3 431 c-4 534 2 664 32
708 43 63 139 87 211 52z m543 -242 c19 -8 46 -33 60 -55 l27 -41 0 -300 c0
-293 -1 -302 -23 -343 -28 -54 -65 -73 -142 -73 -71 0 -109 17 -142 62 -22 32
-23 40 -26 300 -5 328 -2 364 41 413 55 62 124 75 205 37z m-1535 -28 c67 -44
70 -63 71 -374 1 -315 -2 -330 -79 -375 -81 -48 -184 -27 -233 48 l-27 41 0
285 c0 282 0 287 23 323 25 40 63 72 97 81 38 11 109 -3 148 -29z m465 -197
c46 -17 90 -62 102 -105 37 -136 -25 -242 -148 -250 -71 -4 -118 19 -149 74
-61 107 -29 230 71 275 47 21 77 23 124 6z"/>
</g>
</svg>
